<svg id="logo" xmlns="http://www.w3.org/2000/svg" viewBox="0 0 260.56 71.94">
                <title>logo</title>
                <path d="M210.46,454c-0.72,2.35-2.53,7.13-5.51,7.13-2.53,0-3.7-2.26-3.7-6.86,0-10.11,4.78-23.73,5.51-32.94,0.27-2.89-3.88-4.51-6.32-4.51-0.81,0-1.62,0-2,.81-5.05,9.75-8,21.3-11.46,31.31h-0.36c0.18-7.13,1.63-17.15,2.17-23.55,0.27-2.89-3.34-4.06-5.78-4.06-0.81,0-1.62,0-2,.81-2.8,6.68-6,16-9.38,26h-0.36c0-5.87,2.8-17.42,4.6-26.35,0.27-1.35-2.62-3.16-5.42-3.16-1.61,0-4.51,13-5.74,26.16h0v0q-0.08.9-.16,1.81c-1,6.58-6.92,18.13-13.23,18.13-4.6,0-6.23-3.16-6.23-7.4a41.15,41.15,0,0,1,1.63-12.09S148.1,449,152,449c7.13,0,10.29-10.47,10.29-22,0-8.3-4-11-7.4-11-7.94,0-15.43,23.19-15.43,38.26,0,11.28,6.5,17.69,13.45,17.69,5.63,0,9.63-4.19,12.06-9.25,0.92,3.22,2.67,5,5.27,5a4.36,4.36,0,0,0,3.07-1.35c-0.09-8.48,4.24-21.93,7-29.87h0.81c-0.63,7.13-1,15.61-.9,23.1,0.09,6.86.81,10.74,4.87,10.74a4.35,4.35,0,0,0,3.07-1.35c-0.09-8.48,4.15-25.36,7.85-33.39h1.08c-0.9,4.6-2.71,14-2.71,17.87,0,7.31,1.71,13.81,7.85,13.81,6.32,0,10.2-6.95,10.2-10.83A2.27,2.27,0,0,0,210.46,454Zm-56.94-31.49c0.54-1.26,1-1.62,1.35-1.62s1.08,0.45,1.08,4.24c0,8.3-2.71,18.5-5.87,18.5-1.8,0-2.26-2.26-2.26-2.26A80.1,80.1,0,0,1,153.52,422.48Z" transform="translate(-139.44 -400)" fill="#009dff"></path>
                <path d="M262.92,446.71a19.86,19.86,0,0,1-2.15,9.77,16.08,16.08,0,0,1-5.92,6.1,26,26,0,0,1-9,3.14,66.42,66.42,0,0,1-11.3.9q-4.84,0-8.7-.36t-8.34-.9V401.26q3.41-.54,7.44-0.9t9.41-.36a50.7,50.7,0,0,1,9.55.85,23.26,23.26,0,0,1,7.76,2.87A14.84,14.84,0,0,1,257,409.1a16.85,16.85,0,0,1,1.93,8.47,15.73,15.73,0,0,1-1.88,7.67,14.55,14.55,0,0,1-4.75,5.34,20.5,20.5,0,0,1,4,2.11,14.56,14.56,0,0,1,3.41,3.23,15.66,15.66,0,0,1,2.38,4.62A19.57,19.57,0,0,1,262.92,446.71Zm-29.86-21h2.51a10,10,0,0,0,6-1.57q2.15-1.57,2.15-5.42a6,6,0,0,0-.76-3.14,5.83,5.83,0,0,0-1.93-2,7.61,7.61,0,0,0-2.6-1,15.06,15.06,0,0,0-2.78-.27h-1.3a8.13,8.13,0,0,0-1.3.09v13.27Zm0,12.73v15.06c0.42,0.06.94,0.11,1.57,0.13s1.45,0,2.47,0a17.22,17.22,0,0,0,3.45-.36,10.19,10.19,0,0,0,3.18-1.21,6.35,6.35,0,0,0,2.29-2.33,7.37,7.37,0,0,0,.85-3.72q0-4.3-2.82-6a14.29,14.29,0,0,0-7.31-1.66h-3.68Z" transform="translate(-139.44 -400)" fill="#404041"></path>
                <path d="M267.89,442.59a32.06,32.06,0,0,1,1.48-10,21.27,21.27,0,0,1,4.39-7.76,19.39,19.39,0,0,1,7.22-5,26.28,26.28,0,0,1,10-1.75,26.55,26.55,0,0,1,10,1.75,19.4,19.4,0,0,1,7.22,5,21.29,21.29,0,0,1,4.39,7.76,32.06,32.06,0,0,1,1.48,10,30.9,30.9,0,0,1-1.48,9.82,20.93,20.93,0,0,1-4.39,7.62,19.19,19.19,0,0,1-7.22,4.89,27.24,27.24,0,0,1-10,1.7,27,27,0,0,1-10-1.7,19.17,19.17,0,0,1-7.22-4.89,20.91,20.91,0,0,1-4.39-7.62A30.9,30.9,0,0,1,267.89,442.59Zm30.84,0q0-5.74-1.93-8.79a6.47,6.47,0,0,0-5.87-3,6.37,6.37,0,0,0-5.83,3q-1.88,3-1.88,8.79t1.88,8.7a6.36,6.36,0,0,0,5.83,3.05,6.47,6.47,0,0,0,5.87-3.05Q298.73,448.24,298.73,442.59Z" transform="translate(-139.44 -400)" fill="#404041"></path>
                <path d="M334.19,452.9h16.95a21.66,21.66,0,0,1,.58,3.32q0.13,1.52.13,3c0,1,0,2-.13,3a21.57,21.57,0,0,1-.58,3.36H319l0.09-46.36a30.46,30.46,0,0,1,3.9-.63q1.93-.18,3.72-0.18t3.68,0.18a27.51,27.51,0,0,1,3.86.63Z" transform="translate(-139.44 -400)" fill="#404041"></path>
                <path d="M372.74,418.11a39.85,39.85,0,0,1,12.42,1.7,22.63,22.63,0,0,1,8.47,4.8,18.27,18.27,0,0,1,4.84,7.49,29.7,29.7,0,0,1,1.52,9.77,31.43,31.43,0,0,1-1.57,10.22,19.36,19.36,0,0,1-4.93,7.8,22.4,22.4,0,0,1-8.7,5,41.51,41.51,0,0,1-12.87,1.75q-4.39,0-7.85-.31t-7.22-.85V419.37q3.77-.45,8-0.85T372.74,418.11ZM372,453.8a6.7,6.7,0,0,1,.94.09,12.37,12.37,0,0,0,1.75.09q5,0,7.49-2.83t2.47-9.28q0-5.74-2.42-8.39a8.89,8.89,0,0,0-6.9-2.64c-0.72,0-1.38,0-2,.09s-1,.12-1.34.18V453.8Z" transform="translate(-139.44 -400)" fill="#404041"></path>
            </svg>